<svg xmlns="http://www.w3.org/2000/svg" xmlns:xlink="http://www.w3.org/1999/xlink" width="752" height="32" viewBox="0 0 752 32"><svg width="32" height="32" viewBox="0 0 32 32"><path fill="#fff" d="M28.681 7.159c-.694-.947-1.662-2.053-2.724-3.116s-2.169-2.03-3.116-2.724C21.229.137 20.448 0 20 0H4.5A2.503 2.503 0 0 0 2 2.5v27C2 30.878 3.122 32 4.5 32h23c1.378 0 2.5-1.122 2.5-2.5V10c0-.448-.137-1.23-1.319-2.841zm-4.138-1.702A27.334 27.334 0 0 1 26.811 8H22V3.189a27.334 27.334 0 0 1 2.543 2.268zM28 29.5c0 .271-.229.5-.5.5h-23a.507.507 0 0 1-.5-.5v-27c0-.271.229-.5.5-.5H20v7a1 1 0 0 0 1 1h7v19.5z"/><path fill="#fff" d="M23 26H9a1 1 0 0 1 0-2h14a1 1 0 0 1 0 2zm0-4H9a1 1 0 0 1 0-2h14a1 1 0 0 1 0 2zm0-4H9a1 1 0 0 1 0-2h14a1 1 0 0 1 0 2z"/></svg><svg width="32" height="32" viewBox="0 0 32 32" x="48"><path fill="#fff" d="M8 2h16v4H8V2zm22 6H2c-1.1 0-2 .9-2 2v10c0 1.1.9 2 2 2h6v8h16v-8h6c1.1 0 2-.9 2-2V10c0-1.1-.9-2-2-2zM4 14a2 2 0 1 1-.001-3.999A2 2 0 0 1 4 14zm18 14H10V18h12v10z"/></svg><svg width="32" height="32" viewBox="0 0 32 32" x="96"><path fill="#fff" d="M14 18h4v-8h6l-8-8-8 8h6zm6-4.5v3.085L29.158 20 16 24.907 2.842 20 12 16.585V13.5L0 18v8l16 6 16-6v-8z"/></svg><svg width="32" height="32" viewBox="0 0 32 32" x="144"><path fill="#fff" d="M16 0C7.163 0 0 7.163 0 16s7.163 16 16 16 16-7.163 16-16S24.837 0 16 0zm0 30c-1.967 0-3.84-.407-5.538-1.139l7.286-8.197a.998.998 0 0 0 .253-.664v-3a1 1 0 0 0-1-1c-3.531 0-7.256-3.671-7.293-3.707A1 1 0 0 0 9.001 12h-4a1 1 0 0 0-1 1v6c0 .379.214.725.553.894l3.447 1.724v5.871c-3.627-2.53-6-6.732-6-11.489 0-2.147.484-4.181 1.348-6h3.652c.265 0 .52-.105.707-.293l4-4A1 1 0 0 0 12.001 5V2.581a14.013 14.013 0 0 1 4-.581c2.2 0 4.281.508 6.134 1.412A5.961 5.961 0 0 0 20.002 8c0 1.603.624 3.109 1.757 4.243a5.985 5.985 0 0 0 4.536 1.751c.432 1.619 1.211 5.833-.263 11.635a.936.936 0 0 0-.026.163A13.956 13.956 0 0 1 16.002 30z"/></svg><svg width="32" height="32" viewBox="0 0 32 32" x="192"><path fill="#fff" d="M31 12H20V1a1 1 0 0 0-1-1h-6a1 1 0 0 0-1 1v11H1a1 1 0 0 0-1 1v6a1 1 0 0 0 1 1h11v11a1 1 0 0 0 1 1h6a1 1 0 0 0 1-1V20h11a1 1 0 0 0 1-1v-6a1 1 0 0 0-1-1z"/></svg></svg>